<svg xmlns="http://www.w3.org/2000/svg" viewBox="0 0 1200 675" width="1200" height="675" role="img" aria-labelledby="t"><title id="t">Top-down diagram of a box cricket cage with fielders and shot directions</title>
<defs>
  <linearGradient id="sky" x1="0" y1="0" x2="0" y2="1"><stop offset="0" stop-color="#0F0F11"/><stop offset="1" stop-color="#2A2A2E"/></linearGradient>
  <linearGradient id="turf" x1="0" y1="0" x2="0" y2="1"><stop offset="0" stop-color="#16A34A"/><stop offset="1" stop-color="#15803D"/></linearGradient>
  <pattern id="net" width="22" height="22" patternUnits="userSpaceOnUse" patternTransform="rotate(45)"><path d="M0 11H22M11 0V22" stroke="#FFFFFF" stroke-opacity="0.32" stroke-width="1.2"/></pattern>
  <radialGradient id="glow" cx="0.5" cy="0.5" r="0.5"><stop offset="0" stop-color="#E0A92E" stop-opacity="0.55"/><stop offset="1" stop-color="#E0A92E" stop-opacity="0"/></radialGradient>
  <radialGradient id="lamp" cx="0.5" cy="0" r="1"><stop offset="0" stop-color="#FFFFFF" stop-opacity="0.22"/><stop offset="1" stop-color="#FFFFFF" stop-opacity="0"/></radialGradient>
</defs>
<rect width="1200" height="675" fill="url(#sky)"/>
<circle cx="683" cy="58" r="2" fill="#FFFFFF" opacity="0.7"/><circle cx="118" cy="38" r="1" fill="#FFFFFF" opacity="0.5"/><circle cx="138" cy="149" r="1" fill="#FFFFFF" opacity="0.35"/><circle cx="196" cy="131" r="2" fill="#FFFFFF" opacity="0.35"/><circle cx="512" cy="43" r="2" fill="#FFFFFF" opacity="0.35"/><circle cx="1178" cy="51" r="1" fill="#FFFFFF" opacity="0.7"/><circle cx="146" cy="167" r="2" fill="#FFFFFF" opacity="0.35"/><circle cx="472" cy="31" r="1" fill="#FFFFFF" opacity="0.5"/><circle cx="878" cy="56" r="1" fill="#FFFFFF" opacity="0.7"/><circle cx="651" cy="163" r="1" fill="#FFFFFF" opacity="0.35"/><circle cx="404" cy="115" r="1" fill="#FFFFFF" opacity="0.7"/><circle cx="148" cy="164" r="1" fill="#FFFFFF" opacity="0.7"/><circle cx="441" cy="147" r="2" fill="#FFFFFF" opacity="0.5"/><circle cx="973" cy="169" r="2" fill="#FFFFFF" opacity="0.5"/><circle cx="633" cy="83" r="1" fill="#FFFFFF" opacity="0.7"/><circle cx="519" cy="40" r="1.5" fill="#FFFFFF" opacity="0.7"/><circle cx="1033" cy="107" r="2" fill="#FFFFFF" opacity="0.5"/><circle cx="169" cy="50" r="2" fill="#FFFFFF" opacity="0.35"/><circle cx="720" cy="58" r="2" fill="#FFFFFF" opacity="0.5"/><circle cx="100" cy="191" r="1" fill="#FFFFFF" opacity="0.7"/><circle cx="662" cy="107" r="1.5" fill="#FFFFFF" opacity="0.7"/><circle cx="1037" cy="168" r="2" fill="#FFFFFF" opacity="0.35"/><circle cx="211" cy="89" r="2" fill="#FFFFFF" opacity="0.7"/><circle cx="153" cy="35" r="1.5" fill="#FFFFFF" opacity="0.7"/><circle cx="932" cy="92" r="2" fill="#FFFFFF" opacity="0.7"/><circle cx="730" cy="25" r="2" fill="#FFFFFF" opacity="0.5"/><circle cx="364" cy="176" r="1" fill="#FFFFFF" opacity="0.5"/><circle cx="140" cy="75" r="1.5" fill="#FFFFFF" opacity="0.35"/><circle cx="527" cy="121" r="2" fill="#FFFFFF" opacity="0.5"/><circle cx="185" cy="62" r="2" fill="#FFFFFF" opacity="0.5"/><circle cx="1145" cy="91" r="1" fill="#FFFFFF" opacity="0.5"/><circle cx="1146" cy="91" r="2" fill="#FFFFFF" opacity="0.5"/><circle cx="799" cy="79" r="1" fill="#FFFFFF" opacity="0.35"/><circle cx="380" cy="58" r="1" fill="#FFFFFF" opacity="0.7"/><circle cx="497" cy="23" r="2" fill="#FFFFFF" opacity="0.7"/><circle cx="393" cy="87" r="1.5" fill="#FFFFFF" opacity="0.35"/><circle cx="318" cy="127" r="1.5" fill="#FFFFFF" opacity="0.7"/><circle cx="1179" cy="101" r="1" fill="#FFFFFF" opacity="0.7"/><circle cx="1075" cy="178" r="1" fill="#FFFFFF" opacity="0.5"/><circle cx="1165" cy="120" r="2" fill="#FFFFFF" opacity="0.5"/><circle cx="827" cy="46" r="2" fill="#FFFFFF" opacity="0.7"/><circle cx="840" cy="35" r="1" fill="#FFFFFF" opacity="0.35"/><circle cx="447" cy="132" r="1" fill="#FFFFFF" opacity="0.35"/><circle cx="716" cy="173" r="1" fill="#FFFFFF" opacity="0.35"/><circle cx="20" cy="165" r="1" fill="#FFFFFF" opacity="0.7"/><circle cx="227" cy="113" r="1" fill="#FFFFFF" opacity="0.35"/><circle cx="445" cy="177" r="2" fill="#FFFFFF" opacity="0.35"/><circle cx="536" cy="108" r="1.5" fill="#FFFFFF" opacity="0.5"/><circle cx="271" cy="49" r="2" fill="#FFFFFF" opacity="0.5"/><circle cx="1003" cy="143" r="1.5" fill="#FFFFFF" opacity="0.35"/><circle cx="315" cy="46" r="1.5" fill="#FFFFFF" opacity="0.7"/><circle cx="562" cy="142" r="1" fill="#FFFFFF" opacity="0.7"/><circle cx="67" cy="72" r="1.5" fill="#FFFFFF" opacity="0.35"/><circle cx="1132" cy="26" r="1.5" fill="#FFFFFF" opacity="0.7"/><circle cx="206" cy="198" r="1.5" fill="#FFFFFF" opacity="0.7"/><circle cx="771" cy="62" r="1.5" fill="#FFFFFF" opacity="0.35"/><circle cx="1110" cy="158" r="1.5" fill="#FFFFFF" opacity="0.7"/><circle cx="476" cy="176" r="1" fill="#FFFFFF" opacity="0.35"/><circle cx="840" cy="209" r="1" fill="#FFFFFF" opacity="0.35"/><circle cx="1080" cy="146" r="1.5" fill="#FFFFFF" opacity="0.7"/><g transform="translate(600 400)">
  <rect x="-420" y="-200" width="840" height="400" rx="26" fill="url(#turf)"/><rect x="-420" y="-200" width="840" height="400" rx="26" fill="url(#net)"/>
  <rect x="-420" y="-200" width="840" height="400" rx="26" fill="none" stroke="#FFFFFF" stroke-opacity="0.8" stroke-width="4"/>
  <rect x="-60" y="-150" width="120" height="300" fill="#F0FDF4" opacity="0.85" rx="6"/>
  <g stroke="#FFFFFF" stroke-width="4"><line x1="-24" y1="-150" x2="24" y2="-150"/><line x1="-24" y1="150" x2="24" y2="150"/></g>
  <g fill="#FFFFFF"><circle cx="0" cy="-120" r="16"/><text x="0" y="-115" text-anchor="middle" font-size="18" font-weight="800" fill="#1D1D1F" font-family="-apple-system, Inter, sans-serif">B</text></g>
  <g fill="#E0A92E" stroke="#1D1D1F" stroke-width="3"><circle cx="-300" cy="-90" r="18"/><circle cx="300" cy="-90" r="18"/><circle cx="-250" cy="120" r="18"/><circle cx="250" cy="120" r="18"/><circle cx="0" cy="150" r="18"/></g>
  <g font-family="-apple-system, Inter, sans-serif" font-size="16" font-weight="800" fill="#1D1D1F" text-anchor="middle"><text x="-300" y="-84">1</text><text x="300" y="-84">2</text><text x="-250" y="126">3</text><text x="250" y="126">4</text><text x="0" y="156">5</text></g>
  <g stroke="#FFFFFF" stroke-width="5" fill="none" stroke-dasharray="12 10" stroke-linecap="round"><path d="M0 -110 q-200 40 -380 140"/><path d="M0 -110 q200 40 380 140"/><path d="M0 -110 q10 120 0 240"/></g>
  <g fill="#FFFFFF"><path d="M-380 30 l-18 -22 l28 -4z"/><path d="M380 30 l18 -22 l-28 -4z"/><path d="M0 130 l-12 -22 h24z"/></g>
</g><circle cx="120" cy="560" r="72" fill="url(#glow)"/>
<circle cx="120" cy="560" r="24" fill="#E0A92E"/>
<path d="M102.0 546.8 q18.0 13.200000000000001 0 26.400000000000002 M138.0 546.8 q-18.0 13.200000000000001 0 26.400000000000002" fill="none" stroke="#1D1D1F" stroke-width="2.5" stroke-linecap="round"/><text x="600" y="110" text-anchor="middle" font-family="-apple-system, Inter, 'Segoe UI', sans-serif" font-size="54" font-weight="800" fill="#FFFFFF" letter-spacing="-1">How to Win at Box Cricket</text>
<text x="600" y="154" text-anchor="middle" font-family="-apple-system, Inter, 'Segoe UI', sans-serif" font-size="22" font-weight="600" fill="#DCFCE7" letter-spacing="3">TACTICS FOR 6 OVERS, 6 PLAYERS AND FOUR WALLS</text>
<g transform="translate(1040 600)"><rect x="0" y="0" width="120" height="40" rx="20" fill="#1D1D1F" stroke="#FFFFFF" stroke-opacity="0.35"/><text x="60" y="27" text-anchor="middle" font-family="-apple-system, Inter, 'Segoe UI', sans-serif" font-size="17" font-weight="700" fill="#FFFFFF">Tap<tspan fill="#16A34A">Turf</tspan></text></g>
</svg>